PathFileType	4	(X/Y/Z)	C:\Users\WrightLab\Desktop\Jo\P4V113.trc
DataRate	CameraRate	NumFrames	NumMarkers	Units	OrigDataRate	OrigDataStartFrame	OrigNumFrames
100.00	100.00	       18	19	mm	100.00	1	       567
Frame#	Time	Headset_Front			Headset_Back			Headset_Left			Headset_Right			Left_Shoulder			Right_Shoulder			Sternum			C7			Left Elbow			Right Elbow			Left Wrist			Right Wrist			Left ASIS			Right ASIS			S2			Left Knee			Right Knee			Left Ankle			Right Ankle			
		X1	Y1	Z1	X2	Y2	Z2	X3	Y3	Z3	X4	Y4	Z4	X5	Y5	Z5	X6	Y6	Z6	X7	Y7	Z7	X8	Y8	Z8	X9	Y9	Z9	X10	Y10	Z10	X11	Y11	Z11	X12	Y12	Z12	X13	Y13	Z13	X14	Y14	Z14	X15	Y15	Z15	X16	Y16	Z16	X17	Y17	Z17	X18	Y18	Z18	X19	Y19	Z19	

1	0.000																									232.43631	1141.48767	-1383.98621				147.72972	859.38214	-1278.27197	-349.34940	857.46545	-1403.26013	98.93838	990.44165	-1363.44299	-231.17731	1011.70435	-1423.88025				109.34349	505.91898	-1453.60559	-298.22089	554.82404	-1340.43994							
2	0.010																									228.83928	1141.67310	-1379.49292				143.83557	859.24579	-1273.91943	-352.42984	856.42883	-1405.28247	97.57571	990.03113	-1360.89465	-230.23892	1011.55737	-1422.79016				108.17062	503.95804	-1456.83899	-302.52823	555.02222	-1337.36548							
3	0.020																									226.88812	1140.81726	-1372.28564				140.56178	859.56757	-1268.44482	-356.60971	855.59326	-1402.52063	94.34890	989.05280	-1353.54785	-232.82988	1011.04077	-1416.07959				104.34021	504.85870	-1453.05115	-307.36279	556.50439	-1333.81506							
4	0.030																									223.01236	1140.60486	-1366.90247				135.67418	859.18628	-1263.64661	-361.25616	853.45471	-1405.47864	92.38755	987.35797	-1350.82397	-234.57808	1011.07019	-1415.14124				102.35754	505.58841	-1451.13220	-312.56125	557.75195	-1330.57886							
5	0.040																									219.93846	1140.58252	-1361.73083				131.66910	859.33783	-1257.96448	-364.66513	852.79779	-1401.50464	88.40335	987.10938	-1346.11743	-237.30229	1009.87769	-1415.30420				101.54939	505.02673	-1450.79797	-316.75607	557.96924	-1327.38892							
6	0.050																									216.42024	1140.14246	-1355.54175				129.09094	858.14276	-1252.87476	-369.04559	850.76556	-1406.11597	85.18586	984.64777	-1346.52405	-241.04385	1009.91943	-1413.28857				98.32542	506.26447	-1442.51807	-321.55341	558.33154	-1323.55029							
7	0.060																									213.42746	1139.08984	-1348.08020				125.27294	857.50403	-1246.93579	-371.18286	849.46161	-1407.33850	81.12257	985.72656	-1338.33875	-243.30466	1009.40533	-1411.22510				96.91132	504.89108	-1441.45142	-327.41797	559.45264	-1319.94324							
8	0.070																									209.75490	1140.04468	-1345.00525				119.48533	858.05780	-1241.96802	-376.57806	848.28589	-1407.25305	78.69192	983.92181	-1333.93506	-245.01044	1008.18304	-1407.23950				94.98962	503.50415	-1443.85315	-330.84723	559.04425	-1316.30469							
9	0.080																									205.36444	1139.37952	-1338.74207				116.32140	857.20032	-1235.22351	-380.13513	845.85022	-1406.45703	75.50134	983.70355	-1327.03186	-248.97910	1007.12683	-1401.37195				90.62891	504.38242	-1438.45081	-337.45490	559.76404	-1313.25854							
10	0.090																									202.10019	1138.29578	-1331.25781				112.47321	856.55316	-1229.03882	-383.86740	844.17889	-1407.86279	71.82541	983.11829	-1322.68408	-253.81174	1007.24750	-1398.98889				89.00554	503.21707	-1439.80115	-341.20663	559.89697	-1308.80090							
11	0.100																									198.08028	1138.82153	-1327.39050				107.96129	855.87415	-1222.84888	-388.88382	844.02661	-1406.32361	68.15784	979.64020	-1322.40027	-256.78506	1006.57867	-1396.09265				85.70676	503.03973	-1431.92419	-346.11542	560.10913	-1305.02490							
12	0.110																									194.33266	1136.93579	-1318.20422				102.57001	855.90179	-1216.48840	-392.53540	842.25623	-1403.57043	63.39546	979.99121	-1315.32532	-259.44284	1005.31445	-1389.92041				83.81644	502.89777	-1427.89465	-351.33035	559.93848	-1301.30676							
13	0.120																									190.34622	1136.59570	-1312.73157				98.26144	854.84595	-1209.99219	-397.53162	839.09918	-1407.17212	60.85852	979.00208	-1309.66833	-262.66537	1002.99091	-1387.29626				81.43431	503.42249	-1424.61670	-356.09482	559.46942	-1296.75305							
14	0.130																									186.65977	1134.87341	-1304.02844				93.70979	854.35956	-1202.55457	-400.95831	837.61420	-1403.77063	56.29134	978.31482	-1303.29370	-267.18051	1001.97290	-1386.90601				77.88975	502.95386	-1423.06689	-361.27707	559.17371	-1292.67920							
15	0.140																									181.67726	1135.53833	-1300.77832				89.80389	854.16156	-1197.25549	-406.61517	836.01337	-1405.06714	51.24006	974.87598	-1300.11755	-271.36942	1002.22601	-1378.70166				75.17841	500.36404	-1424.25964	-366.75754	558.40570	-1288.06335							
16	0.150																									177.41298	1133.17847	-1290.90564				84.07315	852.52362	-1189.63220	-410.41455	834.33398	-1400.93066	46.68370	974.77234	-1293.81592	-274.51785	1000.97253	-1371.59424				71.24990	500.46722	-1417.63818	-371.87488	558.00439	-1283.65991							
17	0.160																									173.03789	1132.77466	-1285.53516				78.56252	851.88239	-1183.11792	-414.97687	830.95514	-1405.76575	42.91552	973.08112	-1286.08984	-279.96509	997.92291	-1370.93127				69.35341	500.19153	-1413.76721	-377.64154	557.31677	-1278.88416							
18	0.170																									168.43729	1131.10840	-1277.19995				73.52284	850.89191	-1175.52893	-419.27020	828.96606	-1401.85388	38.17232	971.54480	-1281.75220	-284.40930	997.34131	-1364.93823				65.99295	499.96317	-1406.80566	-382.95508	556.65002	-1274.06616							
